<svg width="23" height="23" viewBox="0 0 23 23" fill="none" xmlns="http://www.w3.org/2000/svg">
<path d="M16.8191 11.7669C16.8146 11.2839 16.62 10.8221 16.2774 10.4816L12.3391 6.53411C12.1671 6.36312 11.9344 6.26715 11.6919 6.26715C11.4494 6.26715 11.2167 6.36312 11.0447 6.53411C10.9586 6.61945 10.8903 6.72098 10.8437 6.83285C10.7971 6.94473 10.7731 7.06472 10.7731 7.18591C10.7731 7.3071 10.7971 7.42709 10.8437 7.53896C10.8903 7.65083 10.9586 7.75236 11.0447 7.83771L14.065 10.8488H4.88469C4.64122 10.8488 4.40771 10.9456 4.23555 11.1177C4.06338 11.2899 3.96666 11.5234 3.96666 11.7669C3.96666 12.0103 4.06338 12.2438 4.23555 12.416C4.40771 12.5882 4.64122 12.6849 4.88469 12.6849H14.065L11.0447 15.7052C10.8718 15.8769 10.7742 16.1102 10.7733 16.3538C10.7725 16.5974 10.8684 16.8314 11.0401 17.0042C11.2117 17.1771 11.445 17.2747 11.6886 17.2755C11.9322 17.2764 12.1662 17.1805 12.3391 17.0088L16.2774 13.0613C16.6222 12.7185 16.817 12.253 16.8191 11.7669Z" fill="white"/>
</svg>
