<svg width="32" height="32" viewBox="0 0 32 32" fill="none" xmlns="http://www.w3.org/2000/svg">
<g clip-path="url(#clip0_3_159)">
<path d="M27.9107 8.13086H24.0226C24.0226 6.06847 23.2033 4.09055 21.745 2.63223C20.2866 1.1739 18.3087 0.354614 16.2463 0.354614C14.1839 0.354614 12.206 1.1739 10.7477 2.63223C9.28935 4.09055 8.47007 6.06847 8.47007 8.13086H4.58194C3.55075 8.13086 2.56179 8.5405 1.83262 9.26967C1.10346 9.99883 0.693817 10.9878 0.693817 12.019L0.693817 24.9794C0.695875 26.6974 1.37927 28.3445 2.5941 29.5593C3.80893 30.7742 5.456 31.4576 7.17403 31.4596H25.3186C27.0366 31.4576 28.6837 30.7742 29.8985 29.5593C31.1134 28.3445 31.7968 26.6974 31.7988 24.9794V12.019C31.7988 10.9878 31.3892 9.99883 30.66 9.26967C29.9308 8.5405 28.9419 8.13086 27.9107 8.13086ZM16.2463 2.9467C17.6212 2.9467 18.9399 3.49288 19.9121 4.4651C20.8843 5.43732 21.4305 6.75594 21.4305 8.13086H11.0622C11.0622 6.75594 11.6083 5.43732 12.5806 4.4651C13.5528 3.49288 14.8714 2.9467 16.2463 2.9467ZM29.2067 24.9794C29.2067 26.0106 28.7971 26.9996 28.0679 27.7287C27.3388 28.4579 26.3498 28.8675 25.3186 28.8675H7.17403C6.14283 28.8675 5.15387 28.4579 4.42471 27.7287C3.69554 26.9996 3.2859 26.0106 3.2859 24.9794V12.019C3.2859 11.6753 3.42245 11.3456 3.6655 11.1025C3.90856 10.8595 4.23821 10.7229 4.58194 10.7229H8.47007V13.315C8.47007 13.6588 8.60661 13.9884 8.84967 14.2315C9.09272 14.4745 9.42238 14.6111 9.76611 14.6111C10.1098 14.6111 10.4395 14.4745 10.6825 14.2315C10.9256 13.9884 11.0622 13.6588 11.0622 13.315V10.7229H21.4305V13.315C21.4305 13.6588 21.567 13.9884 21.8101 14.2315C22.0531 14.4745 22.3828 14.6111 22.7265 14.6111C23.0703 14.6111 23.3999 14.4745 23.643 14.2315C23.886 13.9884 24.0226 13.6588 24.0226 13.315V10.7229H27.9107C28.2544 10.7229 28.5841 10.8595 28.8271 11.1025C29.0702 11.3456 29.2067 11.6753 29.2067 12.019V24.9794Z" fill="#374957"/>
</g>
<defs>
<clipPath id="clip0_3_159">
<rect width="31.105" height="31.105" fill="white" transform="translate(0.693817 0.354614)"/>
</clipPath>
</defs>
</svg>
